Coordinates
version=1
nRows=29
nColumns=24
inDegrees=yes

Units are S.I. units (second, meters, Newtons, ...)
Angles are in degrees.

endheader
time	pelvis_tilt	pelvis_list	pelvis_rotation	pelvis_tx	pelvis_ty	pelvis_tz	hip_flexion_r	hip_adduction_r	hip_rotation_r	knee_angle_r	ankle_angle_r	subtalar_angle_r	mtp_angle_r	hip_flexion_l	hip_adduction_l	hip_rotation_l	knee_angle_l	ankle_angle_l	subtalar_angle_l	mtp_angle_l	lumbar_extension	lumbar_bending	lumbar_rotation
      2.20500000	     14.04578221	      5.60362704	     -4.76174051	      0.46977316	      0.94588821	      0.24042511	      4.43458687	     -7.83721394	     -1.25468750	    -64.45131566	     17.83028905	      4.58288216	     51.47873694	     -4.42263687	      9.55947054	     -9.09487411	    -18.33063538	     20.76255668	      4.54332690	     17.86410860	    -31.14831101	     -7.86009651	      6.06909620
      2.21000000	     14.24002823	      5.60680073	     -4.75621435	      0.47621658	      0.94670256	      0.24061556	      4.85574640	     -7.86223198	     -1.38222982	    -63.92157698	     18.20806087	      4.80762053	     50.69294261	     -5.38066137	      9.56542916	     -9.34360295	    -17.73964140	     21.00244801	      5.21870054	     17.37165579	    -31.30968154	     -7.80851474	      5.98271884
      2.21500000	     14.44715744	      5.63235130	     -4.53235009	      0.48264418	      0.94756486	      0.24039660	      5.18839585	     -7.94740043	     -1.73793142	    -63.29881982	     18.49690598	      4.95137735	     50.55267331	     -6.33528726	      9.59391802	     -9.18865810	    -17.19504965	     21.18461770	      5.72189165	     17.34160082	    -31.52507060	     -7.65626865	      5.69859566
      2.22000000	     14.71357532	      5.63115476	     -4.38154316	      0.48913762	      0.94838243	      0.24012685	      5.45003776	     -8.01480936	     -2.05750068	    -62.62071995	     18.82862623	      4.91129939	     49.88389984	     -7.38345721	      9.63617839	     -9.14018784	    -16.59935630	     21.36531355	      6.04578197	     16.94796722	    -31.79417146	     -7.49645297	      5.49722016
      2.22500000	     14.81022042	      5.68385212	     -4.29305486	      0.49532092	      0.94881900	      0.24016746	      5.97726804	     -8.07463161	     -2.22807318	    -61.96867349	     19.00508563	      4.68526644	     49.85253552	     -8.17526677	      9.68851904	     -9.12173909	    -16.12002022	     21.55154989	      6.53678498	     16.90526072	    -31.87880540	     -7.44812121	      5.29714649
      2.23000000	     14.86294058	      5.70462821	     -4.29900793	      0.50134886	      0.94912494	      0.24034448	      6.57721523	     -8.09380423	     -2.30431872	    -61.28563773	     19.17170478	      4.60998291	     49.86215358	     -8.91654103	      9.72457480	     -9.15237526	    -15.60873090	     21.70106062	      6.93755883	     16.82719478	    -31.92455866	     -7.42076023	      5.23218665
      2.23500000	     15.00857908	      5.70708331	     -4.22958180	      0.50759904	      0.94957529	      0.24036807	      6.97270294	     -8.15463939	     -2.50911651	    -60.46642439	     19.37748578	      4.75499326	     49.82280139	     -9.81907022	      9.75476948	     -9.07251125	    -15.01432611	     21.82495427	      7.25960446	     16.73270153	    -32.07133387	     -7.31225250	      5.12416371
      2.24000000	     15.18352871	      5.70873550	     -4.01055850	      0.51367720	      0.94998808	      0.24020432	      7.21857291	     -8.24499090	     -2.88986256	    -59.47526369	     19.65109428	      4.95200911	     49.70613039	    -10.72825470	      9.77032578	     -8.74846124	    -14.45503088	     21.94927898	      7.39342681	     16.60190664	    -32.28606358	     -7.13647282	      4.91846744
      2.24500000	     15.41723191	      5.72265462	     -3.82551273	      0.52004984	      0.95039263	      0.24011788	      7.38859793	     -8.36013339	     -3.24982818	    -58.47416313	     20.00600546	      5.28640551	     49.40866417	    -11.73947650	      9.80674372	     -8.46972815	    -13.85580335	     22.06874418	      7.51967757	     16.43572838	    -32.52130606	     -6.99354982	      4.65195030
      2.25000000	     15.56902376	      5.75347712	     -3.73231945	      0.52652711	      0.95061313	      0.24008505	      7.66358594	     -8.46622949	     -3.47412775	    -57.47235104	     20.18696409	      5.38650609	     49.11336272	    -12.66686285	      9.88183756	     -8.21099544	    -13.25288248	     22.14032863	      7.57778919	     16.23339115	    -32.64149547	     -6.91227740	      4.43295165
      2.25500000	     15.67847484	      5.78885161	     -3.61251558	      0.53292693	      0.95073305	      0.24005725	      7.95611489	     -8.55877964	     -3.70635645	    -56.40866246	     20.17947511	      5.38202749	     48.90641227	    -13.51816770	      9.94174536	     -7.92366253	    -12.69045988	     22.22726998	      7.60786676	     16.03576941	    -32.72675643	     -6.83804547	      4.24956994
      2.26000000	     15.88148799	      5.73698678	     -3.46955052	      0.53936306	      0.95092381	      0.24005174	      8.06740866	     -8.53973509	     -3.97272287	    -55.18097607	     20.35778684	      5.40536235	     48.68692268	    -14.42740394	      9.89830740	     -7.67410359	    -12.24068863	     22.35218005	      7.74214141	     15.87843922	    -32.92683871	     -6.64669628	      4.13298262
      2.26500000	     16.05420779	      5.76288227	     -3.22929647	      0.54559951	      0.95102250	      0.23983608	      8.21082214	     -8.63862042	     -4.30275459	    -53.94958219	     20.58631704	      5.63115986	     47.66089694	    -15.32076447	      9.93224957	     -7.15177243	    -11.72319349	     22.50216710	      7.51241911	     14.98130712	    -33.11810210	     -6.47099694	      3.85946751
      2.27000000	     16.28417606	      5.72314750	     -3.07813928	      0.55181255	      0.95118788	      0.24001746	      8.23867500	     -8.58499502	     -4.45380538	    -52.57279501	     20.62589162	      5.54273830	     47.55986224	    -16.24140206	      9.86451734	     -6.84128820	    -11.28919297	     22.63064843	      7.56738060	     14.83489903	    -33.35521777	     -6.32265086	      3.70208755
      2.27500000	     16.36837495	      5.64206651	     -2.88388959	      0.55807959	      0.95100486	      0.24002602	      8.42018239	     -8.52120665	     -4.73217440	    -51.20975573	     20.51744244	      5.37954089	     47.42802366	    -16.96271818	      9.75469079	     -6.58362752	    -10.93044858	     22.85062908	      7.58062478	     14.67884021	    -33.45105613	     -6.07897608	      3.52150359
      2.28000000	     16.53412970	      5.60219773	     -2.77336220	      0.56436882	      0.95082648	      0.24021789	      8.50588742	     -8.50436862	     -4.94964153	    -49.80842511	     20.43900621	      5.37691085	     47.27227615	    -17.77876014	      9.70247661	     -6.40210917	    -10.52125264	     23.06236402	      7.57746750	     14.44145893	    -33.61747157	     -5.92254628	      3.39586721
      2.28500000	     16.54185873	      5.64495221	     -2.65275184	      0.57025798	      0.95029647	      0.24035697	      8.83144428	     -8.56874872	     -5.13864908	    -48.45710161	     20.30920042	      5.29517703	     47.16826493	    -18.31814570	      9.72061134	     -6.12692681	    -10.29229744	     23.22336718	      7.59892546	     14.09335198	    -33.64848832	     -5.86036174	      3.21363514
      2.29000000	     16.52897001	      5.68530138	     -2.60388260	      0.57623927	      0.94971094	      0.24042072	      9.15834658	     -8.64400905	     -5.27923193	    -47.04866049	     20.18537870	      5.30160099	     46.92802738	    -18.84327948	      9.77392387	     -5.84977765	    -10.06681160	     23.56291080	      7.54758991	     12.03543596	    -33.65234063	     -5.79896284	      3.11507386
      2.29500000	     16.57063099	      5.67809196	     -2.56494942	      0.58238110	      0.94917456	      0.24061798	      9.33997552	     -8.62756861	     -5.36233869	    -45.47920100	     19.95874385	      5.15271598	     46.87517067	    -19.40994202	      9.76284189	     -5.68079851	     -9.86693470	     23.74916134	      7.55126945	     11.97879562	    -33.70194330	     -5.71163449	      3.11313852
      2.30000000	     16.78900544	      5.66835554	     -2.38464507	      0.58868348	      0.94888582	      0.24077342	      9.20702285	     -8.64552596	     -5.65040504	    -43.83249308	     19.73413347	      5.07688835	     46.92693864	    -20.23485949	      9.69143756	     -5.36593935	     -9.58656855	     23.94392924	      7.59826160	     11.83119755	    -33.93316740	     -5.55117892	      2.82888230
      2.30500000	     16.88838251	      5.59889173	     -2.24135597	      0.59491463	      0.94841853	      0.24113143	      9.17387818	     -8.52899269	     -5.76520562	    -42.06053757	     19.42673644	      4.90030055	     46.98525373	    -20.84329214	      9.53808069	     -5.24403257	     -9.47220281	     24.22332567	      7.81836531	     11.58731153	    -34.03911382	     -5.37853524	      2.71393457
      2.31000000	     17.04706841	      5.52720368	     -2.08837736	      0.60116115	      0.94804579	      0.24153997	      9.02611060	     -8.39628477	     -5.87706680	    -40.22699901	     19.08977014	      4.69008152	     46.98129528	    -21.54693435	      9.37932822	     -5.04464221	     -9.29906887	     24.45906952	      7.92468597	     11.25769569	    -34.20831445	     -5.21284716	      2.54097208
      2.31500000	     17.18184611	      5.46715242	     -1.96287990	      0.60735476	      0.94753716	      0.24199554	      8.94628680	     -8.30367206	     -6.04233335	    -38.46572177	     18.67545896	      4.37658460	     46.98837640	    -22.17577897	      9.23235870	     -4.86897207	     -9.21722268	     24.79828721	      8.01095980	     11.03879517	    -34.36860856	     -5.06559994	      2.45259125
      2.32000000	     17.28204268	      5.39533705	     -1.87479728	      0.61365158	      0.94690835	      0.24247104	      8.85859314	     -8.17630781	     -6.17377476	    -36.63052877	     18.32277260	      4.07197743	     46.92725314	    -22.79245681	      9.09927452	     -4.67192002	     -9.08606309	     25.13124087	      8.00978574	     10.89330239	    -34.46698461	     -4.90575384	      2.36525362
      2.32500000	     17.40888813	      5.33435514	     -1.76653794	      0.61992383	      0.94625350	      0.24296849	      8.67740748	     -8.04552281	     -6.23825184	    -34.69865363	     17.97201065	      3.95147311	     47.12508065	    -23.41867885	      8.95820208	     -4.53361744	     -8.98697947	     25.46002315	      8.14663216	     10.53048173	    -34.59994360	     -4.78356268	      2.24051429
      2.33000000	     17.41312237	      5.29709321	     -1.66633642	      0.62612646	      0.94548116	      0.24346873	      8.61279918	     -7.91295962	     -6.23136389	    -32.69635030	     17.55099257	      3.53934646	     46.99101761	    -23.86889012	      8.84081848	     -4.33832478	     -8.96498799	     25.76141729	      8.18923180	     10.40920817	    -34.61375554	     -4.66977452	      2.10097485
      2.33500000	     17.44062103	      5.26199044	     -1.60539175	      0.63224844	      0.94463900	      0.24410700	      8.52511220	     -7.76583612	     -6.10583362	    -30.71456518	     17.09681594	      3.16030118	     46.89523348	    -24.35584173	      8.73953918	     -4.16250355	     -8.90236641	     26.08722562	      8.16549094	     10.33483937	    -34.66676423	     -4.58396897	      2.02741825
      2.34000000	     17.48730680	      5.21102327	     -1.58439376	      0.63833863	      0.94375827	      0.24482501	      8.37339095	     -7.59072213	     -5.84060052	    -28.63528693	     16.56593662	      2.87121618	     46.74842171	    -24.82225890	      8.63004508	     -4.11078642	     -8.91555627	     26.43982870	      8.24030207	     10.26038189	    -34.73140353	     -4.49269622	      1.97443827
      2.34500000	     17.51925358	      5.13351153	     -1.53803456	      0.64458384	      0.94291640	      0.24544349	      8.18916001	     -7.41984288	     -5.59607239	    -26.54207554	     15.82945413	      2.93066204	     46.75395297	    -25.28926949	      8.48707049	     -4.03836024	     -8.91955617	     26.73232459	      8.33355488	     10.16261762	    -34.75760038	     -4.37827207	      1.95911792
